<?xml version="1.0" standalone="no"?>
<!DOCTYPE svg PUBLIC "-//W3C//DTD SVG 20010904//EN"
 "http://www.w3.org/TR/2001/REC-SVG-20010904/DTD/svg10.dtd">
<svg version="1.0" xmlns="http://www.w3.org/2000/svg"
 width="552.000000pt" height="552.000000pt" viewBox="0 0 552.000000 552.000000"
 preserveAspectRatio="xMidYMid meet">
<metadata>
Created by potrace 1.14, written by Peter Selinger 2001-2017
</metadata>
<g transform="translate(0.000000,552.000000) scale(0.100000,-0.100000)"
fill="#000000" stroke="none">
<path d="M531 4748 c3 -556 1 -735 -8 -773 -7 -27 -27 -140 -44 -250 -17 -110
-34 -216 -39 -235 -9 -34 -18 -90 -60 -345 -11 -66 -24 -134 -29 -152 -7 -25
-6 -34 7 -46 23 -19 162 -108 296 -187 l109 -65 -6 -150 c-3 -82 -13 -253 -21
-380 -8 -126 -17 -295 -21 -375 -3 -80 -8 -157 -11 -172 -9 -47 4 -65 98 -135
50 -37 97 -73 105 -80 16 -13 23 -58 53 -338 30 -292 50 -523 51 -597 1 -38 3
-68 5 -68 11 0 282 200 441 325 129 101 174 130 189 119 12 -9 186 -148 272
-217 66 -54 145 -107 158 -107 6 0 53 39 105 86 52 48 106 94 120 103 14 9 52
39 85 67 173 151 302 253 339 269 17 8 75 18 130 24 134 15 275 37 419 67 66
13 122 22 124 19 2 -2 -19 -64 -48 -137 -28 -73 -60 -155 -70 -183 -10 -27
-25 -70 -35 -95 -9 -25 -45 -126 -80 -225 -35 -99 -87 -244 -116 -323 -29 -78
-50 -144 -48 -146 2 -2 60 2 129 10 172 19 490 50 705 69 99 9 227 20 285 26
58 5 160 14 228 19 67 5 127 12 132 15 5 3 50 60 101 128 51 67 145 189 208
271 64 82 139 179 168 217 28 37 92 117 142 178 50 60 91 115 91 121 0 10 -88
170 -120 220 -19 28 -159 275 -191 335 -17 33 -67 119 -110 191 -43 73 -82
140 -86 150 -4 11 -28 53 -53 94 -79 127 -158 264 -169 293 -9 24 -21 31 -43
28 -3 0 -107 -7 -230 -16 -122 -9 -230 -18 -240 -21 -9 -2 -27 5 -41 18 -26
24 -172 195 -247 288 -24 30 -63 76 -88 101 l-44 46 29 20 c15 11 39 24 53 28
13 4 36 16 50 27 14 10 42 19 63 20 20 1 37 2 37 2 0 1 -9 62 -20 136 -28 191
-71 499 -85 605 -3 28 -10 73 -15 100 -5 28 -11 70 -14 95 -12 115 -18 158
-28 203 -6 31 -7 52 0 60 9 12 25 1347 16 1347 -3 0 -66 -46 -140 -102 -75
-57 -146 -110 -157 -118 -12 -8 -59 -42 -104 -75 -44 -33 -161 -118 -258 -190
-98 -71 -228 -168 -289 -215 -61 -47 -127 -96 -146 -110 -19 -13 -73 -54 -120
-91 -157 -123 -149 -119 -264 -118 -175 1 -201 8 -291 72 -184 132 -308 223
-333 245 -15 13 -45 35 -67 49 -41 27 -189 138 -213 161 -7 6 -17 12 -20 12
-4 0 -18 10 -32 23 -14 12 -38 31 -55 41 -16 10 -52 35 -80 56 -263 195 -496
360 -508 360 -6 0 -8 -277 -6 -722z"/>
</g>
</svg>
